<svg xmlns="http://www.w3.org/2000/svg" width="18" height="18" fill="none"><path fill="#0070F0" fill-rule="evenodd" d="M9 1.505a1.125 1.125 0 0 0-.985.583l-.007.012-2.21 4.195-3.196-2.739a1.125 1.125 0 0 0-1.81 1.155l2.125 7.687A1.5 1.5 0 0 0 4.352 13.5h9.297a1.5 1.5 0 0 0 1.434-1.1l2.126-7.685v-.003a1.124 1.124 0 0 0-1.81-1.156l-3.197 2.74L9.992 2.1l-.006-.012A1.125 1.125 0 0 0 9 1.505Zm-3.202 4.79.66.358-.654-.344-.483.565.477-.579Zm5.081.707L9 3.435 7.117 7.011a1.5 1.5 0 0 1-2.274.44l-.01-.008-2.267-1.942 1.797 6.498h9.274L15.435 5.5l-2.268 1.943-.01.008a1.5 1.5 0 0 1-2.274-.44l-.004-.009Z" clip-rule="evenodd"/><path fill="#0070F0" d="M3.75 15a.75.75 0 0 0 0 1.5h10.5a.75.75 0 0 0 0-1.5H3.75Z"/></svg>