<svg xmlns="http://www.w3.org/2000/svg" width="21" height="20" fill="none"><path fill="#fff" fill-rule="evenodd" d="m10.817 3.676-6.978 7.262H9.67a1.654 1.654 0 0 1 1.372.722 1.695 1.695 0 0 1 .202 1.528l-1.051 3.329 6.978-7.263H11.34a1.653 1.653 0 0 1-1.372-.721 1.694 1.694 0 0 1-.202-1.53l1.051-3.327Zm.71-2.822c.278-.052.566-.007.816.129.25.135.447.352.56.615a1.275 1.275 0 0 1 .046.865l-1.6 5.069a.766.766 0 0 1-.013.038H17.172c.314 0 .623.09.89.258a1.698 1.698 0 0 1 .36 2.543l-8.24 8.575a1.246 1.246 0 0 1-1.515.264 1.258 1.258 0 0 1-.56-.616 1.274 1.274 0 0 1-.046-.865l1.6-5.068a.861.861 0 0 1 .013-.04H3.838c-.315.001-.623-.088-.89-.257a1.678 1.678 0 0 1-.617-.7 1.699 1.699 0 0 1 .258-1.843l8.24-8.574c.183-.204.428-.342.697-.393Z" clip-rule="evenodd"/></svg>