<svg xmlns="http://www.w3.org/2000/svg" width="18" height="18" fill="none"><rect width="18" height="18" fill="#fff" rx="9"/><path fill="#373371" fill-rule="evenodd" d="M8.588 5.3 4.655 9.403H8.18a1.262 1.262 0 0 1 1.05.553 1.3 1.3 0 0 1 .155 1.17L8.888 12.7l3.933-4.103H9.297a1.262 1.262 0 0 1-1.05-.553 1.3 1.3 0 0 1-.154-1.17L8.588 5.3Zm.804-2.658a.985.985 0 0 1 .651.102c.2.108.357.281.446.492a1.02 1.02 0 0 1 .037.693L9.513 7.144H13.2c.24 0 .476.068.68.198.205.13.368.316.473.536a1.306 1.306 0 0 1-.203 1.419l-5.511 5.75a.993.993 0 0 1-1.205.209 1.004 1.004 0 0 1-.445-.492 1.02 1.02 0 0 1-.037-.693l1.012-3.215H4.278c-.24 0-.477-.068-.68-.198a1.286 1.286 0 0 1-.473-.536 1.306 1.306 0 0 1 .202-1.419l5.511-5.75a.993.993 0 0 1 .554-.311Z" clip-rule="evenodd"/></svg>